HIERARCHY
ROOT Hips
{
	OFFSET 53.759499 -8.100595 94.326897
	CHANNELS 6 Xposition Yposition Zposition Xrotation Yrotation Zrotation
	JOINT spine
	{
		OFFSET 0.000000 -0.448574 7.800591
		CHANNELS 3 Xrotation Yrotation Zrotation
		JOINT spine1
		{
			OFFSET 0.000000 -0.000002 10.136398
			CHANNELS 3 Xrotation Yrotation Zrotation
			JOINT spine2
			{
				OFFSET 0.000000 -0.000002 9.712509
				CHANNELS 3 Xrotation Yrotation Zrotation
				JOINT Neck
				{
					OFFSET 0.000000 -1.188874 24.936096
					CHANNELS 3 Xrotation Yrotation Zrotation
					JOINT Head
					{
						OFFSET 0.000000 -0.000001 7.533844
						CHANNELS 3 Xrotation Yrotation Zrotation
						End Site
						{
							OFFSET 0.000000 6.014017 18.236099
						}
					}
				}
				JOINT RightShoulder
				{
					OFFSET -4.089649 0.569456 10.488800
					CHANNELS 3 Xrotation Yrotation Zrotation
					JOINT RightArm
					{
						OFFSET 0.000000 -0.000002 13.757004
						CHANNELS 3 Xrotation Yrotation Zrotation
						JOINT RightArmRoll
						{
							OFFSET 0.000000 -0.000001 6.944778
							CHANNELS 3 Xrotation Yrotation Zrotation
							JOINT RightForeArm
							{
								OFFSET 0.000000 -0.000003 20.227707
								CHANNELS 3 Xrotation Yrotation Zrotation
								JOINT RightForeArmRoll
								{
									OFFSET 0.000000 -0.000001 7.793121
									CHANNELS 3 Xrotation Yrotation Zrotation
									JOINT RightHand
									{
										OFFSET 0.000000 -0.000002 15.639099
										CHANNELS 3 Xrotation Yrotation Zrotation
										End Site
										{
											OFFSET 0.000000 0.000000 0.100006
										}
									}
								}
							}
						}
					}
				}
				JOINT LeftShoulder
				{
					OFFSET 4.089649 0.569456 10.488800
					CHANNELS 3 Xrotation Yrotation Zrotation
					JOINT LeftArm
					{
						OFFSET 0.000000 -0.000002 13.757004
						CHANNELS 3 Xrotation Yrotation Zrotation
						JOINT LeftArmRoll
						{
							OFFSET 0.000000 -0.000001 6.944778
							CHANNELS 3 Xrotation Yrotation Zrotation
							JOINT LeftForeArm
							{
								OFFSET 0.000000 -0.000003 20.227707
								CHANNELS 3 Xrotation Yrotation Zrotation
								JOINT LeftForeArmRoll
								{
									OFFSET 0.000000 -0.000001 7.793121
									CHANNELS 3 Xrotation Yrotation Zrotation
									JOINT LeftHand
									{
										OFFSET 0.000000 -0.000002 15.639099
										CHANNELS 3 Xrotation Yrotation Zrotation
										End Site
										{
											OFFSET 0.000000 0.000000 0.100006
										}
									}
								}
							}
						}
					}
				}
			}
		}
	}
	JOINT RightUpLeg
	{
		OFFSET -6.914162 1.063580 -1.267883
		CHANNELS 3 Xrotation Yrotation Zrotation
		JOINT RightUpLegRoll
		{
			OFFSET 0.000000 -0.000003 18.337799
			CHANNELS 3 Xrotation Yrotation Zrotation
			JOINT RightLeg
			{
				OFFSET 0.000000 0.000004 -22.708504
				CHANNELS 3 Xrotation Yrotation Zrotation
				JOINT RightLegRoll
				{
					OFFSET 0.000000 -0.000004 22.782799
					CHANNELS 3 Xrotation Yrotation Zrotation
					JOINT RightFoot
					{
						OFFSET 0.000000 -0.000003 18.962898
						CHANNELS 3 Xrotation Yrotation Zrotation
						JOINT RightToeBase
						{
							OFFSET 0.000000 -0.000002 15.852005
							CHANNELS 3 Xrotation Yrotation Zrotation
							End Site
							{
								OFFSET 0.006718 0.884891 7.677017
							}
						}
					}
				}
			}
		}
	}
	JOINT LeftUpLeg
	{
		OFFSET 6.914162 1.063580 -1.267883
		CHANNELS 3 Xrotation Yrotation Zrotation
		JOINT LeftUpLegRoll
		{
			OFFSET 0.000000 -0.000003 18.337898
			CHANNELS 3 Xrotation Yrotation Zrotation
			JOINT LeftLeg
			{
				OFFSET 0.000000 -0.000004 22.708405
				CHANNELS 3 Xrotation Yrotation Zrotation
				JOINT LeftLegRoll
				{
					OFFSET 0.000000 -0.000004 22.993408
					CHANNELS 3 Xrotation Yrotation Zrotation
					JOINT LeftFoot
					{
						OFFSET 0.000000 -0.000003 18.752197
						CHANNELS 3 Xrotation Yrotation Zrotation
						JOINT LeftToeBase
						{
							OFFSET 0.000000 -0.000002 15.852005
							CHANNELS 3 Xrotation Yrotation Zrotation
							End Site
							{
								OFFSET -0.030113 0.884892 7.677017
							}
						}
					}
				}
			}
		}
	}
}
MOTION
Frames: 7
Frame Time: 0.041667
53.119301 -13.201714 93.927193 -4.107899 0.467235 1.406087 -0.156448 -0.052298 0.098586 3.690006 -0.109886 0.197792 5.335080 -0.107509 0.199090 18.763467 10.761361 -3.090390 -16.467219 -8.860712 -3.361387 -18.412795 -73.886029 -21.797005 -55.417177 -103.043710 -41.939277 0.000001 0.000004 -0.000002 19.313728 -10.699289 0.641590 -0.000001 0.000016 -3.000011 -5.000252 -7.998783 0.000177 -5.832991 64.536436 7.360549 -3.451783 107.695103 -10.543258 -0.000001 -0.000026 -0.000002 21.311655 4.029577 0.480831 -0.000005 -0.000006 3.000011 -5.000311 7.999581 -0.000094 -1.820147 -179.435271 -1.287536 -179.999991 0.000005 -1.064999 165.934200 -0.216314 -0.773192 0.000003 -0.000003 0.244927 72.546055 6.501721 2.976283 25.456972 -7.354129 0.000003 -0.093252 -179.207006 7.200069 -0.000004 -0.000004 -1.471370 -13.715396 4.473173 0.776651 -0.000004 0.000007 -0.341484 74.454417 -7.752135 0.879352 25.462776 7.346779 -0.000855 
53.110405 -13.164818 93.916405 -4.094688 0.467577 1.412243 -0.156332 -0.051995 0.098358 3.690237 -0.108951 0.197620 5.335310 -0.106577 0.198904 18.735842 10.759945 -3.096161 -16.446945 -8.884578 -3.369227 -18.407642 -73.880203 -21.791394 -55.361555 -103.045377 -41.906574 0.000001 0.000004 -0.000003 19.348393 -10.706832 0.645597 0.000000 0.000016 -3.000010 -5.000250 -7.998782 0.000176 -5.826274 64.535500 7.352799 -3.471236 107.687433 -10.486278 -0.000001 -0.000027 -0.000001 21.378607 4.049903 0.478179 -0.000005 -0.000006 3.000010 -5.000311 7.999582 -0.000094 -1.833318 -179.437293 -1.287381 -179.999991 0.000005 -1.064999 165.930894 -0.221161 -0.773423 0.000002 -0.000003 0.245260 72.549286 6.501480 2.976860 25.456969 -7.354128 0.000003 -0.105340 -179.209998 7.198858 -0.000004 -0.000004 -1.471410 -13.717595 4.472898 0.776648 -0.000003 0.000007 -0.341656 74.457572 -7.752174 0.880165 25.462783 7.346781 -0.000855 
53.102406 -13.212717 93.920593 -4.081477 0.467897 1.418407 -0.156246 -0.051687 0.098108 3.690417 -0.108004 0.197421 5.335489 -0.105632 0.198688 18.708003 10.758442 -3.101736 -16.426156 -8.908358 -3.376811 -18.402855 -73.874670 -21.786183 -55.305551 -103.046743 -41.873714 0.000000 0.000006 -0.000003 19.382979 -10.714654 0.649678 -0.000002 0.000017 -3.000010 -5.000252 -7.998782 0.000176 -5.819840 64.534250 7.345365 -3.491501 107.681784 -10.429059 -0.000000 -0.000025 0.000000 21.444752 4.069855 0.475545 -0.000007 -0.000006 3.000011 -5.000313 7.999582 -0.000093 -1.846907 -179.439301 -1.287150 -179.999991 0.000005 -1.064999 165.927083 -0.226007 -0.774653 0.000001 -0.000003 0.245624 72.552626 6.501234 2.977326 25.456969 -7.354128 0.000003 -0.117472 -179.213017 7.197696 -0.000005 -0.000004 -1.471459 -13.719998 4.472638 0.776652 -0.000004 0.000006 -0.341840 74.460981 -7.752257 0.881388 25.462776 7.346780 -0.000855 
53.098206 -13.183016 93.921692 -4.068266 0.468203 1.424590 -0.156179 -0.051373 0.097844 3.690546 -0.107047 0.197203 5.335620 -0.104679 0.198455 18.679849 10.756767 -3.107099 -16.405056 -8.932074 -3.384213 -18.398178 -73.869227 -21.781086 -55.250011 -103.047931 -41.841247 0.000001 0.000006 -0.000000 19.417675 -10.722559 0.653794 -0.000001 0.000016 -3.000010 -5.000255 -7.998783 0.000177 -5.813643 64.532795 7.338175 -3.512766 107.675152 -10.371062 -0.000001 -0.000027 -0.000001 21.510390 4.089523 0.472899 -0.000004 -0.000005 3.000012 -5.000311 7.999581 -0.000095 -1.860799 -179.442306 -1.286839 -179.999991 0.000005 -1.064999 165.922876 -0.229885 -0.774646 0.000003 -0.000003 0.246009 72.556061 6.500986 2.977888 25.456974 -7.354128 0.000003 -0.129634 -179.215995 7.196566 -0.000004 -0.000004 -1.471530 -13.722302 4.472400 0.776646 -0.000004 0.000006 -0.342031 74.464498 -7.752349 0.882619 25.462776 7.346779 -0.000855 
53.089806 -13.214518 93.921608 -4.055064 0.468503 1.430773 -0.156122 -0.051058 0.097571 3.690657 -0.106085 0.196975 5.335729 -0.103721 0.198209 18.651589 10.755090 -3.112392 -16.383761 -8.955753 -3.391497 -18.393510 -73.863783 -21.776007 -55.194482 -103.049134 -41.808995 0.000001 0.000005 0.000001 19.452268 -10.730462 0.657881 -0.000003 0.000016 -3.000011 -5.000251 -7.998783 0.000177 -5.807541 64.531224 7.331101 -3.534343 107.669524 -10.312994 -0.000001 -0.000026 -0.000002 21.575736 4.109039 0.470239 -0.000005 -0.000007 3.000008 -5.000312 7.999581 -0.000093 -1.874855 -179.444301 -1.286530 -179.999991 0.000005 -1.064999 165.918382 -0.234730 -0.775881 0.000002 -0.000003 0.246408 72.559599 6.500700 2.978441 25.456971 -7.354129 0.000003 -0.141809 -179.218003 7.195474 -0.000004 -0.000004 -1.471621 -13.724804 4.472168 0.776652 -0.000005 0.000007 -0.342227 74.468050 -7.752497 0.884044 25.462778 7.346779 -0.000855 
53.090904 -13.202215 93.914711 -4.041866 0.468802 1.436966 -0.156072 -0.050742 0.097296 3.690756 -0.105122 0.196743 5.335830 -0.102761 0.197961 18.623330 10.753414 -3.117671 -16.362358 -8.979432 -3.398732 -18.388951 -73.858435 -21.771035 -55.139035 -103.050213 -41.776736 0.000001 0.000005 -0.000003 19.486871 -10.738447 0.662013 -0.000006 0.000016 -3.000010 -5.000255 -7.998782 0.000176 -5.801507 64.529647 7.324085 -3.556227 107.662906 -10.254710 -0.000001 -0.000026 0.000000 21.641084 4.128521 0.467520 -0.000007 -0.000006 3.000010 -5.000312 7.999580 -0.000092 -1.888966 -179.446295 -1.286211 -179.999991 0.000005 -1.064999 165.913874 -0.239575 -0.777116 0.000001 -0.000003 0.246809 72.563042 6.500452 2.979001 25.456977 -7.354127 0.000003 -0.153993 -179.220995 7.194376 -0.000004 -0.000004 -1.471700 -13.727207 4.471938 0.776650 -0.000003 0.000006 -0.342425 74.471608 -7.752643 0.885369 25.462776 7.346779 -0.000855 
53.079201 -13.225618 93.915199 -4.028664 0.469109 1.443149 -0.156014 -0.050427 0.097026 3.690876 -0.104161 0.196518 5.335948 -0.101803 0.197718 18.595180 10.751726 -3.122993 -16.341062 -9.003147 -3.406004 -18.384286 -73.852991 -21.765952 -55.083266 -103.051353 -41.744153 0.000000 0.000006 0.000000 19.521468 -10.746335 0.666122 -0.000002 0.000016 -3.000011 -5.000251 -7.998783 0.000178 -5.795403 64.528192 7.316999 -3.577738 107.657278 -10.196604 -0.000001 -0.000026 0.000001 21.706546 4.148078 0.464758 -0.000006 -0.000006 3.000010 -5.000312 7.999581 -0.000094 -1.902987 -179.448303 -1.285910 -179.999991 0.000005 -1.064999 165.909461 -0.244420 -0.777355 0.000002 -0.000003 0.247205 72.566566 6.500170 2.979652 25.456967 -7.354128 0.000003 -0.166167 -179.224000 7.193279 -0.000004 -0.000004 -1.471780 -13.729610 4.471697 0.776646 -0.000004 0.000006 -0.342620 74.475249 -7.752740 0.886807 25.462776 7.346780 -0.000855 
